<mxfile host="app.diagrams.net" modified="2024-02-21T17:10:10.437Z" agent="Mozilla/5.0 (X11; Linux x86_64; rv:109.0) Gecko/20100101 Firefox/115.0" etag="QQh9G1gkSe9xcDZxU4t7" version="23.1.5" type="device">
  <diagram name="Page-1" id="g_oy65ygMpFBTy1RUbSw">
    <mxGraphModel dx="3585" dy="2275" grid="1" gridSize="10" guides="1" tooltips="1" connect="1" arrows="1" fold="1" page="1" pageScale="1" pageWidth="2336" pageHeight="1654" math="0" shadow="0">
      <root>
        <mxCell id="0" />
        <mxCell id="1" parent="0" />
        <mxCell id="5VBEP0D_r0S6fKka9dr4-5" style="edgeStyle=orthogonalEdgeStyle;rounded=0;orthogonalLoop=1;jettySize=auto;html=1;exitX=0.75;exitY=1;exitDx=0;exitDy=0;entryX=0.75;entryY=0;entryDx=0;entryDy=0;" edge="1" parent="1" source="5VBEP0D_r0S6fKka9dr4-1" target="5VBEP0D_r0S6fKka9dr4-2">
          <mxGeometry relative="1" as="geometry" />
        </mxCell>
        <mxCell id="5VBEP0D_r0S6fKka9dr4-7" value="8b data" style="edgeLabel;html=1;align=center;verticalAlign=middle;resizable=0;points=[];" vertex="1" connectable="0" parent="5VBEP0D_r0S6fKka9dr4-5">
          <mxGeometry x="-0.075" y="-2" relative="1" as="geometry">
            <mxPoint y="-1" as="offset" />
          </mxGeometry>
        </mxCell>
        <mxCell id="5VBEP0D_r0S6fKka9dr4-1" value="&lt;div&gt;DCD&lt;/div&gt;&lt;div&gt;180nm&lt;/div&gt;&lt;div&gt;8-bit&lt;br&gt;&lt;/div&gt;&lt;div&gt;10 Msps&lt;br&gt;&lt;/div&gt;" style="rounded=0;whiteSpace=wrap;html=1;fillColor=#f5f5f5;fontColor=#333333;strokeColor=#666666;" vertex="1" parent="1">
          <mxGeometry x="40" y="120" width="160" height="120" as="geometry" />
        </mxCell>
        <mxCell id="5VBEP0D_r0S6fKka9dr4-6" style="edgeStyle=orthogonalEdgeStyle;rounded=0;orthogonalLoop=1;jettySize=auto;html=1;exitX=0.25;exitY=0;exitDx=0;exitDy=0;entryX=0.25;entryY=1;entryDx=0;entryDy=0;" edge="1" parent="1" source="5VBEP0D_r0S6fKka9dr4-2" target="5VBEP0D_r0S6fKka9dr4-1">
          <mxGeometry relative="1" as="geometry" />
        </mxCell>
        <mxCell id="5VBEP0D_r0S6fKka9dr4-9" value="2b DAC" style="edgeLabel;html=1;align=center;verticalAlign=middle;resizable=0;points=[];" vertex="1" connectable="0" parent="5VBEP0D_r0S6fKka9dr4-6">
          <mxGeometry x="0.1107" y="-4" relative="1" as="geometry">
            <mxPoint as="offset" />
          </mxGeometry>
        </mxCell>
        <mxCell id="5VBEP0D_r0S6fKka9dr4-16" style="edgeStyle=orthogonalEdgeStyle;rounded=0;orthogonalLoop=1;jettySize=auto;html=1;exitX=0.5;exitY=1;exitDx=0;exitDy=0;" edge="1" parent="1" source="5VBEP0D_r0S6fKka9dr4-2">
          <mxGeometry relative="1" as="geometry">
            <mxPoint x="119.85714285714289" y="480" as="targetPoint" />
          </mxGeometry>
        </mxCell>
        <mxCell id="5VBEP0D_r0S6fKka9dr4-17" value="1.6Gbps" style="edgeLabel;html=1;align=center;verticalAlign=middle;resizable=0;points=[];" vertex="1" connectable="0" parent="5VBEP0D_r0S6fKka9dr4-16">
          <mxGeometry x="-0.2931" y="-2" relative="1" as="geometry">
            <mxPoint as="offset" />
          </mxGeometry>
        </mxCell>
        <mxCell id="5VBEP0D_r0S6fKka9dr4-2" value="&lt;div&gt;DMC&lt;/div&gt;&lt;div&gt;65 nm&lt;/div&gt;&lt;div&gt;50 frames&lt;/div&gt;" style="rounded=0;whiteSpace=wrap;html=1;fillColor=#e1d5e7;strokeColor=#9673a6;" vertex="1" parent="1">
          <mxGeometry x="40" y="320" width="160" height="120" as="geometry" />
        </mxCell>
        <mxCell id="5VBEP0D_r0S6fKka9dr4-10" style="edgeStyle=orthogonalEdgeStyle;rounded=0;orthogonalLoop=1;jettySize=auto;html=1;exitX=0.75;exitY=1;exitDx=0;exitDy=0;entryX=0.75;entryY=0;entryDx=0;entryDy=0;" edge="1" parent="1" source="5VBEP0D_r0S6fKka9dr4-12" target="5VBEP0D_r0S6fKka9dr4-15">
          <mxGeometry relative="1" as="geometry" />
        </mxCell>
        <mxCell id="5VBEP0D_r0S6fKka9dr4-11" value="8b&amp;nbsp; data" style="edgeLabel;html=1;align=center;verticalAlign=middle;resizable=0;points=[];" vertex="1" connectable="0" parent="5VBEP0D_r0S6fKka9dr4-10">
          <mxGeometry x="-0.075" y="-2" relative="1" as="geometry">
            <mxPoint y="-1" as="offset" />
          </mxGeometry>
        </mxCell>
        <mxCell id="5VBEP0D_r0S6fKka9dr4-12" value="&lt;div&gt;DCD&lt;/div&gt;&lt;div&gt;180nm&lt;/div&gt;&lt;div&gt;8-bit&lt;br&gt;&lt;/div&gt;&lt;div&gt;10 Msps&lt;br&gt;&lt;/div&gt;" style="rounded=0;whiteSpace=wrap;html=1;fillColor=#f5f5f5;fontColor=#333333;strokeColor=#666666;" vertex="1" parent="1">
          <mxGeometry x="320" y="120" width="160" height="120" as="geometry" />
        </mxCell>
        <mxCell id="5VBEP0D_r0S6fKka9dr4-13" style="edgeStyle=orthogonalEdgeStyle;rounded=0;orthogonalLoop=1;jettySize=auto;html=1;exitX=0.25;exitY=0;exitDx=0;exitDy=0;entryX=0.25;entryY=1;entryDx=0;entryDy=0;" edge="1" parent="1" source="5VBEP0D_r0S6fKka9dr4-15" target="5VBEP0D_r0S6fKka9dr4-12">
          <mxGeometry relative="1" as="geometry" />
        </mxCell>
        <mxCell id="5VBEP0D_r0S6fKka9dr4-14" value="2b DAC" style="edgeLabel;html=1;align=center;verticalAlign=middle;resizable=0;points=[];" vertex="1" connectable="0" parent="5VBEP0D_r0S6fKka9dr4-13">
          <mxGeometry x="0.1107" y="-4" relative="1" as="geometry">
            <mxPoint as="offset" />
          </mxGeometry>
        </mxCell>
        <mxCell id="5VBEP0D_r0S6fKka9dr4-15" value="&lt;div&gt;DMC&lt;/div&gt;&lt;div&gt;65 nm&lt;/div&gt;&lt;div&gt;50 frames&lt;/div&gt;" style="rounded=0;whiteSpace=wrap;html=1;fillColor=#e1d5e7;strokeColor=#9673a6;" vertex="1" parent="1">
          <mxGeometry x="320" y="320" width="160" height="120" as="geometry" />
        </mxCell>
        <mxCell id="5VBEP0D_r0S6fKka9dr4-18" style="edgeStyle=orthogonalEdgeStyle;rounded=0;orthogonalLoop=1;jettySize=auto;html=1;exitX=0.5;exitY=1;exitDx=0;exitDy=0;" edge="1" parent="1">
          <mxGeometry relative="1" as="geometry">
            <mxPoint x="399.6871428571429" y="480" as="targetPoint" />
            <mxPoint x="399.83" y="440" as="sourcePoint" />
          </mxGeometry>
        </mxCell>
        <mxCell id="5VBEP0D_r0S6fKka9dr4-19" value="&lt;font&gt;3.2 Gbps&lt;/font&gt;" style="edgeLabel;html=1;align=center;verticalAlign=middle;resizable=0;points=[];fontColor=#009900;" vertex="1" connectable="0" parent="5VBEP0D_r0S6fKka9dr4-18">
          <mxGeometry x="-0.2931" y="-2" relative="1" as="geometry">
            <mxPoint as="offset" />
          </mxGeometry>
        </mxCell>
        <mxCell id="5VBEP0D_r0S6fKka9dr4-21" value="&lt;div align=&quot;left&quot;&gt;&lt;b&gt;Potential Improvements?&lt;/b&gt;&lt;/div&gt;&lt;div align=&quot;left&quot;&gt;&lt;b&gt;&lt;br&gt;&lt;/b&gt;&lt;/div&gt;&lt;div align=&quot;left&quot;&gt;increase frames per burst&lt;br&gt;increase measurement resolution&lt;br&gt;increase bursts per second&lt;br&gt;&lt;/div&gt;" style="text;html=1;align=left;verticalAlign=top;resizable=0;points=[];autosize=1;strokeColor=none;fillColor=none;horizontal=1;labelPosition=center;verticalLabelPosition=middle;" vertex="1" parent="1">
          <mxGeometry x="40" y="500" width="200" height="90" as="geometry" />
        </mxCell>
        <mxCell id="5VBEP0D_r0S6fKka9dr4-25" value="Current Architecture:" style="text;html=1;align=center;verticalAlign=middle;resizable=0;points=[];autosize=1;strokeColor=none;fillColor=none;fontStyle=1" vertex="1" parent="1">
          <mxGeometry x="40" y="60" width="150" height="30" as="geometry" />
        </mxCell>
        <mxCell id="5VBEP0D_r0S6fKka9dr4-26" value="Proposal A:" style="text;html=1;align=center;verticalAlign=middle;resizable=0;points=[];autosize=1;strokeColor=none;fillColor=none;fontStyle=1" vertex="1" parent="1">
          <mxGeometry x="355" y="60" width="90" height="30" as="geometry" />
        </mxCell>
        <mxCell id="5VBEP0D_r0S6fKka9dr4-27" value="&lt;div align=&quot;left&quot;&gt;&lt;b&gt;Changes:&lt;/b&gt;&lt;br&gt;&lt;/div&gt;&lt;div align=&quot;left&quot;&gt;&lt;br&gt;&lt;/div&gt;&lt;div align=&quot;left&quot;&gt;no DCD change&lt;br&gt;&lt;/div&gt;&lt;div align=&quot;left&quot;&gt;&lt;font color=&quot;#009900&quot;&gt;&lt;br&gt;&lt;/font&gt;&lt;/div&gt;&lt;div align=&quot;left&quot;&gt;no increase in frame memory&lt;/div&gt;&lt;div align=&quot;left&quot;&gt;&lt;font color=&quot;#009900&quot;&gt;&lt;br&gt;&lt;/font&gt;&lt;/div&gt;&lt;div align=&quot;left&quot;&gt;improve PLL speed&lt;/div&gt;&lt;div align=&quot;left&quot;&gt;&lt;font color=&quot;#009900&quot;&gt;2x bursts per second&lt;/font&gt;&lt;/div&gt;&lt;div align=&quot;left&quot;&gt;&lt;font color=&quot;#009900&quot;&gt;(2x less dead time)&lt;/font&gt;&lt;/div&gt;&lt;div align=&quot;left&quot;&gt;&lt;font color=&quot;#009900&quot;&gt;&lt;br&gt;&lt;/font&gt;&lt;/div&gt;&lt;div align=&quot;left&quot;&gt;&lt;br&gt;&lt;/div&gt;" style="text;html=1;align=left;verticalAlign=top;resizable=0;points=[];autosize=1;strokeColor=none;fillColor=none;horizontal=1;labelPosition=center;verticalLabelPosition=middle;" vertex="1" parent="1">
          <mxGeometry x="320" y="500" width="180" height="170" as="geometry" />
        </mxCell>
        <mxCell id="5VBEP0D_r0S6fKka9dr4-28" value="&amp;nbsp;" style="text;whiteSpace=wrap;html=1;" vertex="1" parent="1">
          <mxGeometry x="440" y="270" width="40" height="40" as="geometry" />
        </mxCell>
        <mxCell id="5VBEP0D_r0S6fKka9dr4-29" style="edgeStyle=orthogonalEdgeStyle;rounded=0;orthogonalLoop=1;jettySize=auto;html=1;exitX=0.75;exitY=1;exitDx=0;exitDy=0;entryX=0.75;entryY=0;entryDx=0;entryDy=0;" edge="1" parent="1">
          <mxGeometry relative="1" as="geometry">
            <mxPoint x="679.58" y="240" as="sourcePoint" />
            <mxPoint x="679.58" y="320" as="targetPoint" />
          </mxGeometry>
        </mxCell>
        <mxCell id="5VBEP0D_r0S6fKka9dr4-30" value="&lt;font&gt;10b data&lt;/font&gt;" style="edgeLabel;html=1;align=center;verticalAlign=middle;resizable=0;points=[];fontColor=#009900;" vertex="1" connectable="0" parent="5VBEP0D_r0S6fKka9dr4-29">
          <mxGeometry x="-0.075" y="-2" relative="1" as="geometry">
            <mxPoint y="-1" as="offset" />
          </mxGeometry>
        </mxCell>
        <mxCell id="5VBEP0D_r0S6fKka9dr4-31" value="&lt;div&gt;DCD&lt;/div&gt;&lt;div&gt;&lt;font color=&quot;#009900&quot;&gt;65nm&lt;/font&gt;&lt;br&gt;&lt;/div&gt;&lt;div&gt;&lt;font color=&quot;#009900&quot;&gt;~12-bit&lt;br&gt;&lt;/font&gt;&lt;/div&gt;&lt;div&gt;10 Msps&lt;br&gt;&lt;/div&gt;" style="rounded=0;whiteSpace=wrap;html=1;fillColor=#e1d5e7;strokeColor=#9673a6;" vertex="1" parent="1">
          <mxGeometry x="600" y="120" width="160" height="120" as="geometry" />
        </mxCell>
        <mxCell id="5VBEP0D_r0S6fKka9dr4-34" style="edgeStyle=orthogonalEdgeStyle;rounded=0;orthogonalLoop=1;jettySize=auto;html=1;exitX=0.5;exitY=1;exitDx=0;exitDy=0;" edge="1" parent="1" source="5VBEP0D_r0S6fKka9dr4-36">
          <mxGeometry relative="1" as="geometry">
            <mxPoint x="679.8571428571429" y="480" as="targetPoint" />
          </mxGeometry>
        </mxCell>
        <mxCell id="5VBEP0D_r0S6fKka9dr4-35" value="1.6Gbps" style="edgeLabel;html=1;align=center;verticalAlign=middle;resizable=0;points=[];" vertex="1" connectable="0" parent="5VBEP0D_r0S6fKka9dr4-34">
          <mxGeometry x="-0.2931" y="-2" relative="1" as="geometry">
            <mxPoint as="offset" />
          </mxGeometry>
        </mxCell>
        <mxCell id="5VBEP0D_r0S6fKka9dr4-36" value="&lt;div&gt;DMC&lt;/div&gt;&lt;div&gt;65 nm&lt;/div&gt;&lt;div&gt;50 frames&lt;/div&gt;" style="rounded=0;whiteSpace=wrap;html=1;fillColor=#e1d5e7;strokeColor=#9673a6;" vertex="1" parent="1">
          <mxGeometry x="600" y="320" width="160" height="120" as="geometry" />
        </mxCell>
        <mxCell id="5VBEP0D_r0S6fKka9dr4-37" style="edgeStyle=orthogonalEdgeStyle;rounded=0;orthogonalLoop=1;jettySize=auto;html=1;exitX=0.75;exitY=1;exitDx=0;exitDy=0;entryX=0.75;entryY=0;entryDx=0;entryDy=0;" edge="1" parent="1" source="5VBEP0D_r0S6fKka9dr4-39" target="5VBEP0D_r0S6fKka9dr4-42">
          <mxGeometry relative="1" as="geometry" />
        </mxCell>
        <mxCell id="5VBEP0D_r0S6fKka9dr4-38" value="8b ADC" style="edgeLabel;html=1;align=center;verticalAlign=middle;resizable=0;points=[];" vertex="1" connectable="0" parent="5VBEP0D_r0S6fKka9dr4-37">
          <mxGeometry x="-0.075" y="-2" relative="1" as="geometry">
            <mxPoint y="-1" as="offset" />
          </mxGeometry>
        </mxCell>
        <mxCell id="5VBEP0D_r0S6fKka9dr4-39" value="&lt;div&gt;DCD&lt;/div&gt;&lt;div&gt;180nm&lt;/div&gt;&lt;div&gt;8-bit&lt;br&gt;&lt;/div&gt;&lt;div&gt;10 Msps&lt;br&gt;&lt;/div&gt;" style="rounded=0;whiteSpace=wrap;html=1;fillColor=#f5f5f5;fontColor=#333333;strokeColor=#666666;" vertex="1" parent="1">
          <mxGeometry x="880" y="120" width="160" height="120" as="geometry" />
        </mxCell>
        <mxCell id="5VBEP0D_r0S6fKka9dr4-40" style="edgeStyle=orthogonalEdgeStyle;rounded=0;orthogonalLoop=1;jettySize=auto;html=1;exitX=0.25;exitY=0;exitDx=0;exitDy=0;entryX=0.25;entryY=1;entryDx=0;entryDy=0;" edge="1" parent="1" source="5VBEP0D_r0S6fKka9dr4-42" target="5VBEP0D_r0S6fKka9dr4-39">
          <mxGeometry relative="1" as="geometry" />
        </mxCell>
        <mxCell id="5VBEP0D_r0S6fKka9dr4-41" value="2b DAC" style="edgeLabel;html=1;align=center;verticalAlign=middle;resizable=0;points=[];" vertex="1" connectable="0" parent="5VBEP0D_r0S6fKka9dr4-40">
          <mxGeometry x="0.1107" y="-4" relative="1" as="geometry">
            <mxPoint as="offset" />
          </mxGeometry>
        </mxCell>
        <mxCell id="5VBEP0D_r0S6fKka9dr4-42" value="&lt;div&gt;DMC&lt;/div&gt;&lt;div&gt;&lt;font color=&quot;#009900&quot;&gt;28 nm&lt;/font&gt;&lt;/div&gt;&lt;div&gt;&lt;font color=&quot;#009900&quot;&gt;~200 frames&lt;/font&gt;&lt;/div&gt;" style="rounded=0;whiteSpace=wrap;html=1;fillColor=#ffe6cc;strokeColor=#d79b00;" vertex="1" parent="1">
          <mxGeometry x="880" y="320" width="160" height="120" as="geometry" />
        </mxCell>
        <mxCell id="5VBEP0D_r0S6fKka9dr4-43" style="edgeStyle=orthogonalEdgeStyle;rounded=0;orthogonalLoop=1;jettySize=auto;html=1;exitX=0.5;exitY=1;exitDx=0;exitDy=0;" edge="1" parent="1">
          <mxGeometry relative="1" as="geometry">
            <mxPoint x="959.6871428571428" y="480" as="targetPoint" />
            <mxPoint x="959.8299999999999" y="440" as="sourcePoint" />
          </mxGeometry>
        </mxCell>
        <mxCell id="5VBEP0D_r0S6fKka9dr4-44" value="&lt;font&gt;3.2 Gbps&lt;/font&gt;" style="edgeLabel;html=1;align=center;verticalAlign=middle;resizable=0;points=[];fontColor=#009900;" vertex="1" connectable="0" parent="5VBEP0D_r0S6fKka9dr4-43">
          <mxGeometry x="-0.2931" y="-2" relative="1" as="geometry">
            <mxPoint as="offset" />
          </mxGeometry>
        </mxCell>
        <mxCell id="5VBEP0D_r0S6fKka9dr4-46" value="Proposal B:" style="text;html=1;align=center;verticalAlign=middle;resizable=0;points=[];autosize=1;strokeColor=none;fillColor=none;fontStyle=1" vertex="1" parent="1">
          <mxGeometry x="630" y="60" width="90" height="30" as="geometry" />
        </mxCell>
        <mxCell id="5VBEP0D_r0S6fKka9dr4-47" value="Proposal C:" style="text;html=1;align=center;verticalAlign=middle;resizable=0;points=[];autosize=1;strokeColor=none;fillColor=none;fontStyle=1" vertex="1" parent="1">
          <mxGeometry x="915" y="60" width="90" height="30" as="geometry" />
        </mxCell>
        <mxCell id="5VBEP0D_r0S6fKka9dr4-49" value="&amp;nbsp;" style="text;whiteSpace=wrap;html=1;" vertex="1" parent="1">
          <mxGeometry x="1000" y="270" width="40" height="40" as="geometry" />
        </mxCell>
        <mxCell id="5VBEP0D_r0S6fKka9dr4-50" value="&lt;div align=&quot;left&quot;&gt;&lt;b&gt;Changes:&lt;/b&gt;&lt;/div&gt;&lt;div align=&quot;left&quot;&gt;&lt;b&gt;&lt;br&gt;&lt;/b&gt;&lt;/div&gt;&lt;div align=&quot;left&quot;&gt;port DCD to 65nm&lt;/div&gt;&lt;div align=&quot;left&quot;&gt;&lt;br&gt;&lt;/div&gt;&lt;div align=&quot;left&quot;&gt;redesign ADC as ~12-bit&lt;/div&gt;&lt;div align=&quot;left&quot;&gt;built-in pedestal DAC frees full 10-wide bus&lt;br&gt;&lt;/div&gt;&lt;font color=&quot;#009900&quot;&gt;10-bit ENOB measurments resolutions&lt;/font&gt;&lt;br&gt;&lt;div align=&quot;left&quot;&gt;&lt;br&gt;&lt;/div&gt;&lt;div align=&quot;left&quot;&gt;&lt;font color=&quot;#ff0000&quot;&gt;potentially increased DCD power&lt;/font&gt;&lt;br&gt;&lt;/div&gt;&lt;div align=&quot;left&quot;&gt;&lt;br&gt;&lt;/div&gt;&lt;div align=&quot;left&quot;&gt;no change in DMC&lt;br&gt;&lt;/div&gt;" style="text;html=1;align=left;verticalAlign=top;resizable=0;points=[];autosize=1;strokeColor=none;fillColor=none;horizontal=1;labelPosition=center;verticalLabelPosition=middle;" vertex="1" parent="1">
          <mxGeometry x="600" y="500" width="250" height="170" as="geometry" />
        </mxCell>
        <mxCell id="5VBEP0D_r0S6fKka9dr4-54" value="&lt;div align=&quot;left&quot;&gt;&lt;b&gt;Changes:&lt;/b&gt;&lt;br&gt;&lt;/div&gt;&lt;div align=&quot;left&quot;&gt;&lt;br&gt;&lt;/div&gt;&lt;div align=&quot;left&quot;&gt;no DCD change&lt;br&gt;&lt;/div&gt;&lt;div align=&quot;left&quot;&gt;&lt;font color=&quot;#009900&quot;&gt;&lt;br&gt;&lt;/font&gt;&lt;/div&gt;&lt;div align=&quot;left&quot;&gt;port DMC to 28nm&lt;/div&gt;&lt;div align=&quot;left&quot;&gt;&lt;br&gt;&lt;/div&gt;&lt;div align=&quot;left&quot;&gt;increase frame memory&lt;br&gt;&lt;/div&gt;&lt;div align=&quot;left&quot;&gt;&lt;font color=&quot;#009900&quot;&gt;4x frames per burst (200)&lt;br&gt;&lt;/font&gt;&lt;/div&gt;&lt;div align=&quot;left&quot;&gt;&lt;font color=&quot;#009900&quot;&gt;&lt;br&gt;&lt;/font&gt;&lt;/div&gt;&lt;div align=&quot;left&quot;&gt;2x improved PLL speed, but&lt;br&gt;&lt;/div&gt;&lt;div&gt;&lt;font color=&quot;#ff0000&quot;&gt;bursts/second will likely degrade 0.5x&lt;/font&gt;&lt;br&gt;&lt;/div&gt;&lt;div&gt;&lt;font color=&quot;#ff3333&quot;&gt;(2x longer dead time)&lt;/font&gt;&lt;br&gt;&lt;/div&gt;" style="text;html=1;align=left;verticalAlign=top;resizable=0;points=[];autosize=1;strokeColor=none;fillColor=none;horizontal=1;labelPosition=center;verticalLabelPosition=middle;" vertex="1" parent="1">
          <mxGeometry x="880" y="500" width="220" height="190" as="geometry" />
        </mxCell>
        <mxCell id="5VBEP0D_r0S6fKka9dr4-60" value="&lt;div&gt;DMC&lt;/div&gt;&lt;div&gt;&lt;font color=&quot;#009900&quot;&gt;28 nm&lt;/font&gt;&lt;/div&gt;&lt;div&gt;&lt;font color=&quot;#009900&quot;&gt;~200 frames&lt;/font&gt;&lt;/div&gt;" style="rounded=0;whiteSpace=wrap;html=1;fillColor=#ffe6cc;strokeColor=#d79b00;" vertex="1" parent="1">
          <mxGeometry x="1160" y="320" width="160" height="120" as="geometry" />
        </mxCell>
        <mxCell id="5VBEP0D_r0S6fKka9dr4-61" style="edgeStyle=orthogonalEdgeStyle;rounded=0;orthogonalLoop=1;jettySize=auto;html=1;exitX=0.5;exitY=1;exitDx=0;exitDy=0;" edge="1" parent="1">
          <mxGeometry relative="1" as="geometry">
            <mxPoint x="1239.6871428571428" y="480" as="targetPoint" />
            <mxPoint x="1239.83" y="440" as="sourcePoint" />
          </mxGeometry>
        </mxCell>
        <mxCell id="5VBEP0D_r0S6fKka9dr4-62" value="&lt;font&gt;3.2 Gbps&lt;/font&gt;" style="edgeLabel;html=1;align=center;verticalAlign=middle;resizable=0;points=[];fontColor=#009900;" vertex="1" connectable="0" parent="5VBEP0D_r0S6fKka9dr4-61">
          <mxGeometry x="-0.2931" y="-2" relative="1" as="geometry">
            <mxPoint as="offset" />
          </mxGeometry>
        </mxCell>
        <mxCell id="5VBEP0D_r0S6fKka9dr4-63" value="Proposal D:" style="text;html=1;align=center;verticalAlign=middle;resizable=0;points=[];autosize=1;strokeColor=none;fillColor=none;fontStyle=1" vertex="1" parent="1">
          <mxGeometry x="1195" y="60" width="90" height="30" as="geometry" />
        </mxCell>
        <mxCell id="5VBEP0D_r0S6fKka9dr4-65" value="&lt;div align=&quot;left&quot;&gt;&lt;b&gt;Changes:&lt;/b&gt;&lt;br&gt;&lt;/div&gt;&lt;div align=&quot;left&quot;&gt;&lt;br&gt;&lt;/div&gt;&lt;div align=&quot;left&quot;&gt;Essentially Plan B + Plan C&lt;/div&gt;&lt;div align=&quot;left&quot;&gt;&lt;br&gt;&lt;/div&gt;&lt;div align=&quot;left&quot;&gt;&lt;div align=&quot;left&quot;&gt;port DCD to 65nm&lt;/div&gt;&lt;div align=&quot;left&quot;&gt;&lt;br&gt;&lt;/div&gt;&lt;div align=&quot;left&quot;&gt;redesign ADC as ~12-bit&lt;/div&gt;&lt;div align=&quot;left&quot;&gt;&lt;br&gt;&lt;/div&gt;&lt;div align=&quot;left&quot;&gt;built-in pedestal DAC frees full 10-wide bus&lt;br&gt;&lt;/div&gt;&lt;font color=&quot;#009900&quot;&gt;10-bit ENOB measurments resolutions&lt;/font&gt;&lt;br&gt;&lt;/div&gt;&lt;div align=&quot;left&quot;&gt;&lt;font color=&quot;#009900&quot;&gt;&lt;br&gt;&lt;/font&gt;&lt;/div&gt;&lt;div align=&quot;left&quot;&gt;port DMC to 28nm&lt;/div&gt;&lt;div align=&quot;left&quot;&gt;&lt;br&gt;&lt;/div&gt;&lt;div align=&quot;left&quot;&gt;increase frame memory&lt;br&gt;&lt;/div&gt;&lt;div align=&quot;left&quot;&gt;&lt;font color=&quot;#009900&quot;&gt;4x frames per burst (200)&lt;br&gt;&lt;/font&gt;&lt;/div&gt;&lt;div align=&quot;left&quot;&gt;&lt;font color=&quot;#009900&quot;&gt;&lt;br&gt;&lt;/font&gt;&lt;/div&gt;&lt;div align=&quot;left&quot;&gt;2x improved PLL speed, but&lt;br&gt;&lt;/div&gt;&lt;div&gt;&lt;font color=&quot;#ff0000&quot;&gt;bursts/second will likely degrade 0.5x&lt;/font&gt;&lt;br&gt;&lt;/div&gt;&lt;div&gt;&lt;font color=&quot;#ff0000&quot;&gt;(2x longer dead time)&lt;/font&gt;&lt;br&gt;&lt;/div&gt;&lt;div align=&quot;left&quot;&gt;&lt;br&gt;&lt;/div&gt;&lt;div align=&quot;left&quot;&gt;&lt;font color=&quot;#ff0000&quot;&gt;potentially increased DCD and DMC power&lt;/font&gt;&lt;/div&gt;" style="text;html=1;align=left;verticalAlign=top;resizable=0;points=[];autosize=1;strokeColor=none;fillColor=none;horizontal=1;labelPosition=center;verticalLabelPosition=middle;" vertex="1" parent="1">
          <mxGeometry x="1160" y="500" width="250" height="320" as="geometry" />
        </mxCell>
        <mxCell id="5VBEP0D_r0S6fKka9dr4-66" style="edgeStyle=orthogonalEdgeStyle;rounded=0;orthogonalLoop=1;jettySize=auto;html=1;exitX=0.75;exitY=1;exitDx=0;exitDy=0;entryX=0.75;entryY=0;entryDx=0;entryDy=0;" edge="1" parent="1">
          <mxGeometry relative="1" as="geometry">
            <mxPoint x="1239.58" y="240" as="sourcePoint" />
            <mxPoint x="1239.58" y="320" as="targetPoint" />
          </mxGeometry>
        </mxCell>
        <mxCell id="5VBEP0D_r0S6fKka9dr4-67" value="&lt;font&gt;10b data&lt;/font&gt;" style="edgeLabel;html=1;align=center;verticalAlign=middle;resizable=0;points=[];fontColor=#009900;" vertex="1" connectable="0" parent="5VBEP0D_r0S6fKka9dr4-66">
          <mxGeometry x="-0.075" y="-2" relative="1" as="geometry">
            <mxPoint y="-1" as="offset" />
          </mxGeometry>
        </mxCell>
        <mxCell id="5VBEP0D_r0S6fKka9dr4-68" value="&lt;div&gt;DCD&lt;/div&gt;&lt;div&gt;&lt;font color=&quot;#009900&quot;&gt;65nm&lt;/font&gt;&lt;br&gt;&lt;/div&gt;&lt;div&gt;&lt;font color=&quot;#009900&quot;&gt;~12-bit&lt;br&gt;&lt;/font&gt;&lt;/div&gt;&lt;div&gt;10 Msps&lt;br&gt;&lt;/div&gt;" style="rounded=0;whiteSpace=wrap;html=1;fillColor=#e1d5e7;strokeColor=#9673a6;" vertex="1" parent="1">
          <mxGeometry x="1160" y="120" width="160" height="120" as="geometry" />
        </mxCell>
        <mxCell id="5VBEP0D_r0S6fKka9dr4-70" style="edgeStyle=orthogonalEdgeStyle;rounded=0;orthogonalLoop=1;jettySize=auto;html=1;exitX=0.5;exitY=1;exitDx=0;exitDy=0;" edge="1" parent="1">
          <mxGeometry relative="1" as="geometry">
            <mxPoint x="1519.6871428571428" y="480" as="targetPoint" />
            <mxPoint x="1519.83" y="440" as="sourcePoint" />
          </mxGeometry>
        </mxCell>
        <mxCell id="5VBEP0D_r0S6fKka9dr4-71" value="&lt;font&gt;3.2 Gbps&lt;/font&gt;" style="edgeLabel;html=1;align=center;verticalAlign=middle;resizable=0;points=[];fontColor=#009900;" vertex="1" connectable="0" parent="5VBEP0D_r0S6fKka9dr4-70">
          <mxGeometry x="-0.2931" y="-2" relative="1" as="geometry">
            <mxPoint as="offset" />
          </mxGeometry>
        </mxCell>
        <mxCell id="5VBEP0D_r0S6fKka9dr4-72" value="Proposal E:" style="text;html=1;align=center;verticalAlign=middle;resizable=0;points=[];autosize=1;strokeColor=none;fillColor=none;fontStyle=1" vertex="1" parent="1">
          <mxGeometry x="1475" y="60" width="90" height="30" as="geometry" />
        </mxCell>
        <mxCell id="5VBEP0D_r0S6fKka9dr4-73" value="&lt;div align=&quot;left&quot;&gt;&lt;b&gt;Changes:&lt;/b&gt;&lt;br&gt;&lt;/div&gt;&lt;div&gt;&lt;br&gt;&lt;/div&gt;&lt;div&gt;monolithic DCD + DMC in 65nm&lt;/div&gt;&lt;div&gt;&lt;font color=&quot;#ff0000&quot;&gt;requires ASM balcony redesign&lt;/font&gt;&lt;/div&gt;&lt;div&gt;&lt;font color=&quot;#009900&quot;&gt;more total silicon area&lt;br&gt;&lt;/font&gt;&lt;/div&gt;&lt;div align=&quot;left&quot;&gt;&lt;div align=&quot;left&quot;&gt;&lt;br&gt;&lt;/div&gt;&lt;div align=&quot;left&quot;&gt;redesign ADC as ~12-bit, similar to plan B&lt;/div&gt;&lt;div align=&quot;left&quot;&gt;&lt;font color=&quot;#009900&quot;&gt;10-12 bit measurement resolution?&lt;/font&gt;&lt;br&gt;&lt;/div&gt;&lt;br&gt;&lt;/div&gt;&lt;div align=&quot;left&quot;&gt;minor increase to frame memory&lt;br&gt;&lt;/div&gt;&lt;div align=&quot;left&quot;&gt;&lt;font color=&quot;#009900&quot;&gt;1.5x frames per burst (80) ?&lt;/font&gt;&lt;br&gt;&lt;/div&gt;&lt;div align=&quot;left&quot;&gt;&lt;font color=&quot;#009900&quot;&gt;&lt;br&gt;&lt;/font&gt;&lt;/div&gt;&lt;div align=&quot;left&quot;&gt;2x improved PLL speed, but&lt;br&gt;&lt;/div&gt;&lt;div&gt;&lt;font color=&quot;#ff0000&quot;&gt;0.5x bursts/second will likely degrade 0.5x&lt;/font&gt;&lt;br&gt;&lt;/div&gt;&lt;div&gt;&lt;font color=&quot;#ff0000&quot;&gt;(2x longer dead time)&lt;/font&gt;&lt;br&gt;&lt;/div&gt;&lt;div align=&quot;left&quot;&gt;&lt;br&gt;&lt;/div&gt;&lt;div align=&quot;left&quot;&gt;&lt;font color=&quot;#ff0000&quot;&gt;power difference?&lt;br&gt;&lt;/font&gt;&lt;/div&gt;&lt;div&gt;&lt;br&gt;&lt;/div&gt;&lt;div&gt;&lt;br&gt;&lt;/div&gt;" style="text;html=1;align=left;verticalAlign=top;resizable=0;points=[];autosize=1;strokeColor=none;fillColor=none;horizontal=1;labelPosition=center;verticalLabelPosition=middle;" vertex="1" parent="1">
          <mxGeometry x="1440" y="500" width="250" height="290" as="geometry" />
        </mxCell>
        <mxCell id="5VBEP0D_r0S6fKka9dr4-76" value="&lt;div&gt;DCD + DMC&lt;br&gt;&lt;/div&gt;&lt;div&gt;&lt;font color=&quot;#009900&quot;&gt;65nm&lt;/font&gt;&lt;/div&gt;&lt;div&gt;&lt;font color=&quot;#009900&quot;&gt;&lt;br&gt;&lt;/font&gt;&lt;/div&gt;&lt;div&gt;&lt;font color=&quot;#009900&quot;&gt;~12-bit&lt;br&gt;&lt;/font&gt;&lt;/div&gt;&lt;div&gt;10 Msps&lt;br&gt;&lt;/div&gt;&lt;div&gt;&lt;br&gt;&lt;/div&gt;&lt;div&gt;&lt;font color=&quot;#009900&quot;&gt;~80 frames?&lt;/font&gt;&lt;br&gt;&lt;/div&gt;" style="rounded=0;whiteSpace=wrap;html=1;fillColor=#e1d5e7;strokeColor=#9673a6;" vertex="1" parent="1">
          <mxGeometry x="1440" y="120" width="160" height="320" as="geometry" />
        </mxCell>
        <mxCell id="5VBEP0D_r0S6fKka9dr4-77" style="edgeStyle=orthogonalEdgeStyle;rounded=0;orthogonalLoop=1;jettySize=auto;html=1;exitX=0.5;exitY=1;exitDx=0;exitDy=0;" edge="1" parent="1">
          <mxGeometry relative="1" as="geometry">
            <mxPoint x="1799.6871428571428" y="480" as="targetPoint" />
            <mxPoint x="1799.83" y="440" as="sourcePoint" />
          </mxGeometry>
        </mxCell>
        <mxCell id="5VBEP0D_r0S6fKka9dr4-78" value="&lt;font&gt;3.2 Gbps&lt;/font&gt;" style="edgeLabel;html=1;align=center;verticalAlign=middle;resizable=0;points=[];fontColor=#009900;" vertex="1" connectable="0" parent="5VBEP0D_r0S6fKka9dr4-77">
          <mxGeometry x="-0.2931" y="-2" relative="1" as="geometry">
            <mxPoint as="offset" />
          </mxGeometry>
        </mxCell>
        <mxCell id="5VBEP0D_r0S6fKka9dr4-79" value="Proposal F:" style="text;html=1;align=center;verticalAlign=middle;resizable=0;points=[];autosize=1;strokeColor=none;fillColor=none;fontStyle=1" vertex="1" parent="1">
          <mxGeometry x="1755" y="60" width="90" height="30" as="geometry" />
        </mxCell>
        <mxCell id="5VBEP0D_r0S6fKka9dr4-80" value="&lt;div align=&quot;left&quot;&gt;&lt;b&gt;Changes:&lt;/b&gt;&lt;br&gt;&lt;/div&gt;&lt;div&gt;&lt;br&gt;&lt;/div&gt;&lt;div&gt;monolithic DCD + DMC in 28nm&lt;/div&gt;&lt;div&gt;&lt;font color=&quot;#ff0000&quot;&gt;requires ASM balcony redesign&lt;/font&gt;&lt;br&gt;&lt;/div&gt;&lt;div align=&quot;left&quot;&gt;&lt;div align=&quot;left&quot;&gt;&lt;font color=&quot;#009900&quot;&gt;more total silicon area&lt;/font&gt;&lt;br&gt;&lt;/div&gt;&lt;div align=&quot;left&quot;&gt;&lt;br&gt;&lt;/div&gt;&lt;div align=&quot;left&quot;&gt;redesign ADC as ~12-bit&lt;br&gt;&lt;/div&gt;&lt;div align=&quot;left&quot;&gt;&lt;font color=&quot;#009900&quot;&gt;supply may limit measurement resolution?&lt;/font&gt;&lt;/div&gt;&lt;/div&gt;&lt;div&gt;&lt;br&gt;&lt;/div&gt;&lt;div&gt;&lt;br&gt;&lt;/div&gt;&lt;div&gt;increase frame memory&lt;br&gt;&lt;/div&gt;&lt;div&gt;&lt;font color=&quot;#009900&quot;&gt;5x frames per burst (250) ?&lt;/font&gt;&lt;br&gt;&lt;/div&gt;&lt;div&gt;&lt;br&gt;&lt;/div&gt;&lt;div align=&quot;left&quot;&gt;&lt;font color=&quot;#009900&quot;&gt;&lt;br&gt;&lt;/font&gt;&lt;/div&gt;&lt;div align=&quot;left&quot;&gt;2x improved PLL speed, but&lt;br&gt;&lt;/div&gt;&lt;div&gt;&lt;font color=&quot;#ff0000&quot;&gt;bursts/second will likely degrade 0.5x&lt;/font&gt;&lt;br&gt;&lt;/div&gt;&lt;div&gt;&lt;font color=&quot;#ff0000&quot;&gt;(2.5x longer dead time)&lt;/font&gt;&lt;br&gt;&lt;/div&gt;&lt;div align=&quot;left&quot;&gt;&lt;br&gt;&lt;/div&gt;&lt;div align=&quot;left&quot;&gt;&lt;font color=&quot;#ff0000&quot;&gt;power difference?&lt;br&gt;&lt;/font&gt;&lt;/div&gt;" style="text;html=1;align=left;verticalAlign=top;resizable=0;points=[];autosize=1;strokeColor=none;fillColor=none;horizontal=1;labelPosition=center;verticalLabelPosition=middle;" vertex="1" parent="1">
          <mxGeometry x="1720" y="500" width="250" height="290" as="geometry" />
        </mxCell>
        <mxCell id="5VBEP0D_r0S6fKka9dr4-81" value="&lt;div&gt;DCD + DMC&lt;br&gt;&lt;/div&gt;&lt;div&gt;&lt;font color=&quot;#009900&quot;&gt;28nm&lt;/font&gt;&lt;/div&gt;&lt;div&gt;&lt;font color=&quot;#009900&quot;&gt;&lt;br&gt;&lt;/font&gt;&lt;/div&gt;&lt;div&gt;&lt;font color=&quot;#009900&quot;&gt;~12-bit?&lt;br&gt;&lt;/font&gt;&lt;/div&gt;&lt;div&gt;10 Msps&lt;br&gt;&lt;/div&gt;&lt;div&gt;&lt;br&gt;&lt;/div&gt;&lt;div&gt;&lt;font color=&quot;#009900&quot;&gt;~250 frames?&lt;/font&gt;&lt;br&gt;&lt;/div&gt;" style="rounded=0;whiteSpace=wrap;html=1;fillColor=#ffe6cc;strokeColor=#d79b00;" vertex="1" parent="1">
          <mxGeometry x="1720" y="120" width="160" height="320" as="geometry" />
        </mxCell>
      </root>
    </mxGraphModel>
  </diagram>
</mxfile>
